<svg width="48" height="47" viewBox="0 0 48 47" fill="none" xmlns="http://www.w3.org/2000/svg">
<path d="M39 48H9C4.029 48 0 43.971 0 39V9C0 4.029 4.029 0 9 0H39C43.971 0 48 4.029 48 9V39C48 43.971 43.971 48 39 48Z" fill="#FBF6EA"/>
<g clip-path="url(#clip0_5319_647)">
<path d="M18.1156 26.4253H15.5317C14.5999 26.4253 13.8418 27.2179 13.8418 28.192V33.915C13.8418 34.5133 14.3074 35 14.8796 35H18.7676C19.3398 35 19.8054 34.5133 19.8054 33.915V28.1921C19.8054 27.2179 19.0474 26.4253 18.1156 26.4253Z" fill="#232536"/>
<path d="M25.6996 22.9492H23.1157C22.1839 22.9492 21.4258 23.7418 21.4258 24.7159V33.9148C21.4258 34.5131 21.8914 34.9998 22.4636 34.9998H26.3516C26.9239 34.9998 27.3894 34.5131 27.3894 33.9148V24.7159C27.3894 23.7417 26.6314 22.9492 25.6996 22.9492Z" fill="#232536"/>
<path d="M33.4261 18.9888H30.8423C29.9104 18.9888 29.1523 19.7813 29.1523 20.7554V33.9148C29.1523 34.5131 29.6179 34.9998 30.1901 34.9998H34.0781C34.6504 34.9998 35.1159 34.5131 35.1159 33.9148V20.7554C35.116 19.7813 34.3579 18.9888 33.4261 18.9888Z" fill="#232536"/>
<path d="M31.3681 11.6682C31.052 11.2011 30.538 10.9541 29.9929 11.0064L25.1128 11.4785C24.5678 11.5312 24.1059 11.8729 23.8771 12.3926C23.6483 12.9123 23.7004 13.5015 24.0165 13.9686L24.2889 14.371L18.2318 18.7468L18.2256 18.7513C17.7958 19.0693 17.5102 19.5432 17.4213 20.0858C17.3325 20.6284 17.4511 21.1746 17.7552 21.624C18.0593 22.0733 18.5127 22.3719 19.0317 22.4648C19.1441 22.4849 19.2567 22.4949 19.3685 22.4949C19.7713 22.4949 20.1637 22.3657 20.4996 22.1184L26.5664 17.7357L26.8476 18.1511C27.1357 18.5767 27.588 18.8198 28.0783 18.8198C28.1261 18.8198 28.1743 18.8175 28.2228 18.8128C28.7677 18.7601 29.2297 18.4183 29.4585 17.8986L31.5076 13.2441C31.7364 12.7243 31.6843 12.1352 31.3681 11.6682Z" fill="#FFD050"/>
</g>
<defs>
<clipPath id="clip0_5319_647">
<rect width="22.9565" height="24" fill="white" transform="translate(13 11)"/>
</clipPath>
</defs>
</svg>
