<svg width="16" height="16" viewBox="0 0 16 16" fill="none" xmlns="http://www.w3.org/2000/svg">
<mask id="mask0_5320_658" style="mask-type:luminance" maskUnits="userSpaceOnUse" x="0" y="0" width="16" height="16">
<path d="M16 0H0V16H16V0Z" fill="white"/>
</mask>
<g mask="url(#mask0_5320_658)">
<path d="M16 8C16 3.58172 12.4183 0 8 0C3.58172 0 0 3.58172 0 8C0 11.993 2.92547 15.3027 6.75 15.9028V10.3125H4.71875V8H6.75V6.2375C6.75 4.2325 7.94438 3.125 9.77172 3.125C10.6467 3.125 11.5625 3.28125 11.5625 3.28125V5.25H10.5538C9.56 5.25 9.25 5.86672 9.25 6.5V8H11.4688L11.1141 10.3125H9.25V15.9028C13.0745 15.3027 16 11.993 16 8Z" fill="#232536"/>
</g>
</svg>
